# xmcd
#
# Track frame offsets:
# 150
# 10825
# 21125
# 33492
# 54670
# 66027
# 79642
# 92732
# 101950
# 113660
# 130610
# 146365
# 160127
# 175305
# 191632
#
# Disc length: 2709 seconds
#
#
# Revision: 0
# Processed by: cddbd v1.5.2PL0 Copyright (c) Steve Scherf et al.
# Submitted via: FreeRIP 2.945 
#
DISCID=bf0a930f
DTITLE=Os Monarcas - A Gaita Gaúcha dos Monarcas
DYEAR=1900
DGENRE=
TTITLE0=Gaiteiro Desmamado
TTITLE1=Coisa de Loco
TTITLE2=A Gaita Gaúcha
TTITLE3=Pantaneiro
TTITLE4=Bugio Vinagre
TTITLE5=Reboliço ao Lado Norte
TTITLE6=Milonga de Verão
TTITLE7=Minuano
TTITLE8=Bailando em Poa
TTITLE9=Piaca Pau Brasileiro
TTITLE10=Dançando com a Morena
TTITLE11=Gaita Mirin
TTITLE12=Um Baile em Santa Cruz
TTITLE13=Encontro de Amigos
TTITLE14=Esteio da Tradição
EXTD=
EXTT0=
EXTT1=
EXTT2=
EXTT3=
EXTT4=
EXTT5=
EXTT6=
EXTT7=
EXTT8=
EXTT9=
EXTT10=
EXTT11=
EXTT12=
EXTT13=
EXTT14=
PLAYORDER=
